<?xml version="1.0" standalone="no"?>
<!DOCTYPE svg PUBLIC "-//W3C//DTD SVG 20010904//EN"
 "http://www.w3.org/TR/2001/REC-SVG-20010904/DTD/svg10.dtd">
<svg version="1.0" xmlns="http://www.w3.org/2000/svg"
 width="3000pt" height="972pt" viewBox="0 0 3000 972"
 preserveAspectRatio="xMidYMid meet">

<g transform="translate(0,972) scale(0.1,-0.1)"
fill="#4a6cfc" stroke="none">
<path d="M0 4860 l0 -4860 4970 0 4970 0 -2 993 -3 992 -587 3 -588 2 0 -410
0 -410 -3790 0 -3790 0 2 3688 3 3687 3785 0 3785 0 3 -1023 2 -1022 588 2
587 3 3 1608 2 1607 -4970 0 -4970 0 0 -4860z"/>
<path d="M5661 4953 c-40 -186 -106 -493 -147 -683 -91 -416 -104 -521 -81
-634 21 -104 57 -175 121 -240 133 -136 315 -191 559 -168 225 22 441 119 615
277 34 31 68 55 75 52 6 -2 30 -70 52 -151 l39 -146 382 0 c356 0 383 1 388
18 9 29 426 1988 426 2001 0 8 -128 11 -479 11 l-479 0 -5 -22 c-3 -13 -74
-342 -157 -733 l-152 -710 -61 -59 c-76 -72 -143 -106 -214 -106 -69 0 -100
16 -124 62 -42 81 -34 129 155 1014 64 298 116 544 116 548 0 3 -215 6 -478 6
l-478 0 -73 -337z"/>
<path d="M3135 6248 c-2 -7 -144 -672 -315 -1478 -171 -806 -313 -1475 -317
-1487 l-5 -23 510 0 511 0 16 73 c8 39 71 335 139 657 l123 585 45 -140 c25
-77 118 -373 208 -657 l164 -518 513 0 c282 0 513 2 513 4 0 2 -160 417 -355
921 -195 505 -355 922 -355 927 0 8 859 945 1004 1096 l50 52 -269 0 -270 -1
-575 -645 c-316 -355 -576 -641 -577 -637 -2 5 55 283 127 618 72 336 133 622
136 638 l6 27 -512 0 c-400 0 -512 -3 -515 -12z"/>

<path d="M9168 5325 c-277 -39 -444 -95 -602 -200 -70 -46 -173 -156 -209
-222 -87 -162 -89 -407 -5 -565 39 -73 139 -168 219 -208 32 -17 139 -53 237
-81 208 -60 255 -78 342 -135 114 -74 139 -162 76 -268 -58 -100 -185 -137
-322 -95 -73 23 -115 102 -117 226 l-2 83 -317 0 c-175 0 -318 -2 -318 -5 0
-4 -86 -417 -94 -448 -6 -24 40 -45 203 -92 247 -71 548 -103 871 -92 490 17
781 108 957 301 111 122 148 233 140 421 -5 142 -22 197 -86 285 -44 60 -132
135 -201 170 -68 34 -216 82 -380 121 -188 45 -248 71 -305 129 -39 40 -40 43
-43 118 -5 101 20 150 101 206 100 69 212 60 250 -20 26 -54 42 -166 30 -213
-6 -22 -8 -43 -5 -46 9 -8 600 -6 606 3 7 11 106 447 106 466 0 32 -283 119
-490 151 -145 23 -513 29 -642 10z"/>
<path d="M11695 5329 c-280 -28 -553 -120 -746 -250 -82 -55 -213 -186 -269
-268 -168 -250 -238 -659 -164 -965 63 -265 264 -468 549 -556 193 -59 508
-81 795 -56 292 26 530 84 692 168 l76 39 56 232 c31 128 59 242 62 255 l6 22
-388 0 -389 0 -18 -50 c-64 -179 -240 -350 -366 -354 -63 -2 -97 22 -129 92
-26 55 -27 64 -27 227 0 94 6 209 14 257 l13 88 666 2 667 3 31 53 c39 64 79
188 99 306 58 338 -58 567 -344 679 -152 59 -279 78 -551 82 -135 2 -285 -1
-335 -6z m310 -334 c91 -53 106 -193 54 -502 l-11 -63 -270 0 c-252 0 -269 1
-264 18 45 148 66 204 111 297 112 229 256 323 380 250z"/>
<path d="M14900 5325 c-91 -20 -201 -60 -295 -107 -94 -48 -141 -79 -246 -165
-43 -35 -84 -63 -92 -63 -10 0 -28 48 -57 150 l-43 150 -383 0 c-356 0 -383
-1 -388 -17 -5 -18 -426 -2001 -426 -2009 0 -2 217 -3 482 -2 l481 3 156 734
156 734 65 55 c80 68 150 102 212 102 61 0 94 -16 119 -56 32 -53 34 -115 5
-259 -32 -164 -265 -1274 -272 -1297 -5 -17 22 -18 475 -18 l479 0 16 68 c8
37 56 258 106 492 50 234 104 487 120 562 45 209 80 422 80 492 0 202 -111
349 -323 428 -74 28 -95 31 -222 34 -97 3 -160 -1 -205 -11z"/>
</g>

<g transform="translate(0,972) scale(0.1,-0.1)"
fill="#9aacf9" stroke="none">
<!-- B -->
<path d="M17022 6208 c-64 -292 -622 -2926 -622 -2935 0 -20 1473 -18 1663 2
297 31 535 109 724 236 192 130 311 296 369 514 15 54 19 105 19 220 -1 136
-3 157 -27 225 -62 177 -150 275 -327 365 l-54 27 59 32 c116 62 180 110 265
196 70 70 95 103 127 171 54 114 67 173 67 314 0 201 -42 313 -165 435 -57 57
-97 87 -165 122 -222 113 -365 128 -1296 128 l-626 0 -11 -52z m1234 -302 c92
-50 137 -149 137 -301 -1 -268 -128 -524 -291 -585 -43 -16 -78 -20 -182 -20
-72 0 -130 3 -130 8 0 4 45 214 100 467 55 253 100 461 100 464 0 2 49 2 109
-1 93 -5 116 -9 157 -32z m-272 -1248 c60 -18 128 -90 156 -163 81 -218 -14
-624 -188 -808 -96 -101 -167 -127 -344 -127 -70 0 -128 3 -128 8 0 9 220
1073 225 1090 6 16 223 16 279 0z"/>

<!-- o -->
<path d="M20514 5324 c-297 -36 -512 -115 -690 -255 -297 -234 -448 -581 -431
-989 13 -292 93 -482 267 -634 158 -137 396 -207 755 -223 418 -17 816 80
1056 258 224 166 375 440 419 759 16 115 13 339 -5 442 -18 107 -66 241 -108
305 -126 192 -335 298 -667 338 -152 18 -443 18 -596 -1z m356 -319 c67 -34
89 -160 71 -396 -49 -653 -220 -1062 -444 -1063 -128 0 -182 148 -158 438 32
378 122 704 246 890 78 119 201 175 285 131z"/>

<!-- g -->
<path d="M22980 5333 c-201 -33 -374 -125 -512 -271 -115 -122 -179 -231 -248
-421 -89 -245 -124 -442 -124 -706 0 -164 4 -201 22 -269 45 -161 136 -279
265 -340 108 -51 163 -61 322 -60 164 1 238 16 360 73 106 50 177 103 256 191
56 62 89 85 89 63 0 -30 -74 -393 -91 -449 -57 -184 -136 -269 -299 -319 -77
-23 -341 -30 -570 -15 -102 6 -198 13 -214 13 l-29 2 -44 -164 c-24 -90 -42
-165 -40 -168 11 -10 336 -23 612 -24 317 -1 477 12 659 51 405 88 692 291
845 598 65 129 100 270 276 1107 96 462 185 881 196 930 11 50 22 100 24 113
l5 22 -383 0 -383 0 -92 -132 c-117 -169 -117 -168 -133 -168 -8 0 -24 21 -36
48 -95 202 -297 304 -596 301 -62 -1 -123 -4 -137 -6z m539 -472 c36 -19 131
-122 131 -144 0 -5 -39 -193 -86 -416 l-86 -406 -61 -63 c-105 -107 -233 -153
-301 -109 -60 39 -82 143 -66 305 35 349 139 671 255 787 64 65 143 82 214 46z"/>

<path d="M25985 5328 c-218 -24 -419 -81 -565 -159 -400 -216 -623 -656 -580
-1148 36 -405 240 -653 616 -746 297 -74 732 -70 1032 10 322 86 529 231 683
480 201 325 238 835 84 1159 -42 89 -135 194 -223 252 -110 73 -278 125 -482
149 -136 16 -435 18 -565 3z m356 -346 c35 -39 49 -107 49 -241 0 -128 -13
-268 -40 -441 -75 -475 -220 -748 -399 -753 -84 -3 -140 55 -161 169 -33 172
21 611 106 873 40 120 128 291 175 338 94 96 212 120 270 55z"/>
<path d="M29325 5333 c-168 -35 -251 -70 -345 -144 -71 -56 -164 -153 -198
-206 -17 -28 -34 -43 -47 -43 -19 0 -24 17 -56 173 l-35 172 -385 3 -384 2
-210 -987 c-115 -544 -211 -1000 -213 -1015 l-4 -28 480 0 480 0 12 53 c6 28
74 347 151 707 129 602 142 657 167 684 41 43 118 76 181 76 49 0 57 -3 91
-38 56 -56 82 -157 96 -372 l7 -110 257 0 256 0 103 480 c57 264 101 486 98
493 -7 19 -103 63 -188 87 -55 15 -101 20 -184 19 -60 -1 -119 -3 -130 -6z"/>
</g>

</svg>
